<mxfile host="app.diagrams.net" agent="Mozilla/5.0 (Windows NT 10.0; Win64; x64) AppleWebKit/537.36 (KHTML, like Gecko) Chrome/130.0.0.0 YaBrowser/24.12.0.0 Safari/537.36" version="25.0.3">
  <diagram name="Страница — 1" id="EclzNrds-NZ3ug63e4lx">
    <mxGraphModel dx="1290" dy="1736" grid="1" gridSize="10" guides="1" tooltips="1" connect="1" arrows="1" fold="1" page="1" pageScale="1" pageWidth="827" pageHeight="1169" math="0" shadow="0">
      <root>
        <mxCell id="0" />
        <mxCell id="1" parent="0" />
        <mxCell id="xZHqeH_8xTrkQgz-fUOX-1" style="edgeStyle=orthogonalEdgeStyle;rounded=0;orthogonalLoop=1;jettySize=auto;html=1;" parent="1" source="xZHqeH_8xTrkQgz-fUOX-2" target="xZHqeH_8xTrkQgz-fUOX-4" edge="1">
          <mxGeometry relative="1" as="geometry" />
        </mxCell>
        <mxCell id="xZHqeH_8xTrkQgz-fUOX-2" value="Начало" style="ellipse;whiteSpace=wrap;html=1;" parent="1" vertex="1">
          <mxGeometry x="170" y="-50" width="150" height="60" as="geometry" />
        </mxCell>
        <mxCell id="xZHqeH_8xTrkQgz-fUOX-3" style="edgeStyle=orthogonalEdgeStyle;rounded=0;orthogonalLoop=1;jettySize=auto;html=1;" parent="1" source="xZHqeH_8xTrkQgz-fUOX-4" target="xZHqeH_8xTrkQgz-fUOX-6" edge="1">
          <mxGeometry relative="1" as="geometry" />
        </mxCell>
        <mxCell id="xZHqeH_8xTrkQgz-fUOX-4" value="Ввод rows, columns и&amp;nbsp;&lt;div&gt;двухмерного массива&amp;nbsp;&lt;/div&gt;&lt;div&gt;matrix&lt;/div&gt;" style="shape=parallelogram;perimeter=parallelogramPerimeter;whiteSpace=wrap;html=1;fixedSize=1;" parent="1" vertex="1">
          <mxGeometry x="165" y="30" width="160" height="50" as="geometry" />
        </mxCell>
        <mxCell id="xZHqeH_8xTrkQgz-fUOX-5" style="edgeStyle=orthogonalEdgeStyle;rounded=0;orthogonalLoop=1;jettySize=auto;html=1;" parent="1" source="xZHqeH_8xTrkQgz-fUOX-6" target="xZHqeH_8xTrkQgz-fUOX-9" edge="1">
          <mxGeometry relative="1" as="geometry" />
        </mxCell>
        <mxCell id="xZHqeH_8xTrkQgz-fUOX-6" value="sum := 0;&lt;div&gt;i := 1;&lt;/div&gt;" style="rounded=0;whiteSpace=wrap;html=1;" parent="1" vertex="1">
          <mxGeometry x="175" y="100" width="140" height="60" as="geometry" />
        </mxCell>
        <mxCell id="xZHqeH_8xTrkQgz-fUOX-7" value="Конец" style="ellipse;whiteSpace=wrap;html=1;" parent="1" vertex="1">
          <mxGeometry x="170" y="760" width="150" height="60" as="geometry" />
        </mxCell>
        <mxCell id="xZHqeH_8xTrkQgz-fUOX-8" style="edgeStyle=orthogonalEdgeStyle;rounded=0;orthogonalLoop=1;jettySize=auto;html=1;" parent="1" source="xZHqeH_8xTrkQgz-fUOX-9" target="xZHqeH_8xTrkQgz-fUOX-10" edge="1">
          <mxGeometry relative="1" as="geometry" />
        </mxCell>
        <mxCell id="xZHqeH_8xTrkQgz-fUOX-9" value="Цикл 1&lt;div&gt;i &amp;gt; min(rows, columns)&lt;/div&gt;" style="shape=loopLimit;whiteSpace=wrap;html=1;" parent="1" vertex="1">
          <mxGeometry x="175" y="180" width="140" height="60" as="geometry" />
        </mxCell>
        <mxCell id="xZHqeH_8xTrkQgz-fUOX-44" style="edgeStyle=orthogonalEdgeStyle;rounded=0;orthogonalLoop=1;jettySize=auto;html=1;" parent="1" source="xZHqeH_8xTrkQgz-fUOX-10" target="xZHqeH_8xTrkQgz-fUOX-40" edge="1">
          <mxGeometry relative="1" as="geometry" />
        </mxCell>
        <mxCell id="xZHqeH_8xTrkQgz-fUOX-10" value="sum += matrix[i, i] + matrix[i, size - i + 1];" style="rounded=0;whiteSpace=wrap;html=1;" parent="1" vertex="1">
          <mxGeometry x="175" y="260" width="140" height="60" as="geometry" />
        </mxCell>
        <mxCell id="xZHqeH_8xTrkQgz-fUOX-51" style="edgeStyle=orthogonalEdgeStyle;rounded=0;orthogonalLoop=1;jettySize=auto;html=1;" parent="1" source="xZHqeH_8xTrkQgz-fUOX-19" target="xZHqeH_8xTrkQgz-fUOX-48" edge="1">
          <mxGeometry relative="1" as="geometry" />
        </mxCell>
        <mxCell id="xZHqeH_8xTrkQgz-fUOX-19" value="Цикл 1" style="shape=loopLimit;whiteSpace=wrap;html=1;direction=west;" parent="1" vertex="1">
          <mxGeometry x="175" y="430" width="140" height="60" as="geometry" />
        </mxCell>
        <mxCell id="xZHqeH_8xTrkQgz-fUOX-20" style="edgeStyle=orthogonalEdgeStyle;rounded=0;orthogonalLoop=1;jettySize=auto;html=1;" parent="1" source="xZHqeH_8xTrkQgz-fUOX-21" target="xZHqeH_8xTrkQgz-fUOX-7" edge="1">
          <mxGeometry relative="1" as="geometry" />
        </mxCell>
        <mxCell id="xZHqeH_8xTrkQgz-fUOX-21" value="Вывод sum" style="shape=parallelogram;perimeter=parallelogramPerimeter;whiteSpace=wrap;html=1;fixedSize=1;" parent="1" vertex="1">
          <mxGeometry x="165" y="690" width="160" height="50" as="geometry" />
        </mxCell>
        <mxCell id="xZHqeH_8xTrkQgz-fUOX-22" value="" style="endArrow=none;dashed=1;html=1;rounded=0;" parent="1" target="xZHqeH_8xTrkQgz-fUOX-23" edge="1">
          <mxGeometry width="50" height="50" relative="1" as="geometry">
            <mxPoint x="315" y="55" as="sourcePoint" />
            <mxPoint x="390" y="60" as="targetPoint" />
          </mxGeometry>
        </mxCell>
        <mxCell id="xZHqeH_8xTrkQgz-fUOX-23" value="" style="shape=partialRectangle;whiteSpace=wrap;html=1;bottom=1;right=1;left=1;top=0;fillColor=none;routingCenterX=-0.5;rotation=90;" parent="1" vertex="1">
          <mxGeometry x="348.75" y="50" width="52.5" height="10" as="geometry" />
        </mxCell>
        <mxCell id="xZHqeH_8xTrkQgz-fUOX-24" value="rows - количество строк двумерного массива&lt;br&gt;columns - количество столбцов двумерного массива&lt;br&gt;matrix - сам двумерный массив" style="text;html=1;align=left;verticalAlign=middle;whiteSpace=wrap;rounded=0;" parent="1" vertex="1">
          <mxGeometry x="380" y="40" width="300" height="30" as="geometry" />
        </mxCell>
        <mxCell id="xZHqeH_8xTrkQgz-fUOX-25" value="" style="endArrow=none;dashed=1;html=1;rounded=0;" parent="1" target="xZHqeH_8xTrkQgz-fUOX-26" edge="1">
          <mxGeometry width="50" height="50" relative="1" as="geometry">
            <mxPoint x="315" y="130" as="sourcePoint" />
            <mxPoint x="390" y="135" as="targetPoint" />
          </mxGeometry>
        </mxCell>
        <mxCell id="xZHqeH_8xTrkQgz-fUOX-26" value="" style="shape=partialRectangle;whiteSpace=wrap;html=1;bottom=1;right=1;left=1;top=0;fillColor=none;routingCenterX=-0.5;rotation=90;" parent="1" vertex="1">
          <mxGeometry x="362.18" y="125" width="25.63" height="10" as="geometry" />
        </mxCell>
        <mxCell id="xZHqeH_8xTrkQgz-fUOX-27" value="sum - переменная для записи суммы" style="text;html=1;align=left;verticalAlign=middle;whiteSpace=wrap;rounded=0;" parent="1" vertex="1">
          <mxGeometry x="380" y="115" width="230" height="30" as="geometry" />
        </mxCell>
        <mxCell id="xZHqeH_8xTrkQgz-fUOX-28" value="" style="endArrow=none;dashed=1;html=1;rounded=0;" parent="1" target="xZHqeH_8xTrkQgz-fUOX-29" edge="1">
          <mxGeometry width="50" height="50" relative="1" as="geometry">
            <mxPoint x="315" y="210" as="sourcePoint" />
            <mxPoint x="390" y="215" as="targetPoint" />
          </mxGeometry>
        </mxCell>
        <mxCell id="xZHqeH_8xTrkQgz-fUOX-29" value="" style="shape=partialRectangle;whiteSpace=wrap;html=1;bottom=1;right=1;left=1;top=0;fillColor=none;routingCenterX=-0.5;rotation=90;" parent="1" vertex="1">
          <mxGeometry x="362.18" y="205" width="25.63" height="10" as="geometry" />
        </mxCell>
        <mxCell id="xZHqeH_8xTrkQgz-fUOX-30" value="Перебор значений от 1 до&amp;nbsp;&lt;span style=&quot;text-align: center;&quot;&gt;min(rows, columns)&lt;/span&gt;" style="text;html=1;align=left;verticalAlign=middle;whiteSpace=wrap;rounded=0;" parent="1" vertex="1">
          <mxGeometry x="380" y="195" width="230" height="30" as="geometry" />
        </mxCell>
        <mxCell id="xZHqeH_8xTrkQgz-fUOX-34" value="" style="endArrow=none;dashed=1;html=1;rounded=0;" parent="1" target="xZHqeH_8xTrkQgz-fUOX-35" edge="1">
          <mxGeometry width="50" height="50" relative="1" as="geometry">
            <mxPoint x="315" y="715" as="sourcePoint" />
            <mxPoint x="385" y="720" as="targetPoint" />
          </mxGeometry>
        </mxCell>
        <mxCell id="xZHqeH_8xTrkQgz-fUOX-35" value="" style="shape=partialRectangle;whiteSpace=wrap;html=1;bottom=1;right=1;left=1;top=0;fillColor=none;routingCenterX=-0.5;rotation=90;" parent="1" vertex="1">
          <mxGeometry x="357.18" y="710" width="25.63" height="10" as="geometry" />
        </mxCell>
        <mxCell id="xZHqeH_8xTrkQgz-fUOX-36" value="Выводим результат" style="text;html=1;align=left;verticalAlign=middle;whiteSpace=wrap;rounded=0;" parent="1" vertex="1">
          <mxGeometry x="375" y="700" width="230" height="30" as="geometry" />
        </mxCell>
        <mxCell id="xZHqeH_8xTrkQgz-fUOX-39" style="edgeStyle=orthogonalEdgeStyle;rounded=0;orthogonalLoop=1;jettySize=auto;html=1;" parent="1" source="xZHqeH_8xTrkQgz-fUOX-40" target="xZHqeH_8xTrkQgz-fUOX-19" edge="1">
          <mxGeometry relative="1" as="geometry" />
        </mxCell>
        <mxCell id="xZHqeH_8xTrkQgz-fUOX-40" value="i += 1" style="rounded=0;whiteSpace=wrap;html=1;" parent="1" vertex="1">
          <mxGeometry x="175" y="340" width="140" height="60" as="geometry" />
        </mxCell>
        <mxCell id="xZHqeH_8xTrkQgz-fUOX-45" value="" style="endArrow=none;dashed=1;html=1;rounded=0;" parent="1" target="xZHqeH_8xTrkQgz-fUOX-46" edge="1">
          <mxGeometry width="50" height="50" relative="1" as="geometry">
            <mxPoint x="310" y="290" as="sourcePoint" />
            <mxPoint x="385" y="295" as="targetPoint" />
          </mxGeometry>
        </mxCell>
        <mxCell id="xZHqeH_8xTrkQgz-fUOX-46" value="" style="shape=partialRectangle;whiteSpace=wrap;html=1;bottom=1;right=1;left=1;top=0;fillColor=none;routingCenterX=-0.5;rotation=90;" parent="1" vertex="1">
          <mxGeometry x="357.18" y="285" width="25.63" height="10" as="geometry" />
        </mxCell>
        <mxCell id="xZHqeH_8xTrkQgz-fUOX-47" value="&lt;span style=&quot;text-align: center;&quot;&gt;matrix[i, i] - главная диагональ&lt;br&gt;&lt;/span&gt;&lt;span style=&quot;text-align: center;&quot;&gt;matrix[i, columns - i + 1] - побочная диагональ&lt;/span&gt;&lt;span style=&quot;text-align: center;&quot;&gt;&lt;br&gt;&lt;/span&gt;" style="text;html=1;align=left;verticalAlign=middle;whiteSpace=wrap;rounded=0;" parent="1" vertex="1">
          <mxGeometry x="375" y="275" width="265" height="30" as="geometry" />
        </mxCell>
        <mxCell id="xZHqeH_8xTrkQgz-fUOX-52" value="" style="group" parent="1" vertex="1" connectable="0">
          <mxGeometry x="175" y="510" width="150" height="66" as="geometry" />
        </mxCell>
        <mxCell id="xZHqeH_8xTrkQgz-fUOX-56" style="edgeStyle=orthogonalEdgeStyle;rounded=0;orthogonalLoop=1;jettySize=auto;html=1;" parent="xZHqeH_8xTrkQgz-fUOX-52" source="xZHqeH_8xTrkQgz-fUOX-48" edge="1">
          <mxGeometry relative="1" as="geometry">
            <mxPoint x="70" y="160" as="targetPoint" />
            <Array as="points">
              <mxPoint x="155" y="30" />
              <mxPoint x="155" y="160" />
            </Array>
          </mxGeometry>
        </mxCell>
        <mxCell id="xZHqeH_8xTrkQgz-fUOX-48" value="rows = columns" style="rhombus;whiteSpace=wrap;html=1;" parent="xZHqeH_8xTrkQgz-fUOX-52" vertex="1">
          <mxGeometry width="140" height="60" as="geometry" />
        </mxCell>
        <mxCell id="xZHqeH_8xTrkQgz-fUOX-49" value="да" style="text;html=1;align=center;verticalAlign=middle;whiteSpace=wrap;rounded=0;" parent="xZHqeH_8xTrkQgz-fUOX-52" vertex="1">
          <mxGeometry x="49" y="56" width="20" height="10" as="geometry" />
        </mxCell>
        <mxCell id="xZHqeH_8xTrkQgz-fUOX-50" value="нет" style="text;html=1;align=center;verticalAlign=middle;whiteSpace=wrap;rounded=0;" parent="xZHqeH_8xTrkQgz-fUOX-52" vertex="1">
          <mxGeometry x="130" y="17" width="20" height="10" as="geometry" />
        </mxCell>
        <mxCell id="xZHqeH_8xTrkQgz-fUOX-55" style="edgeStyle=orthogonalEdgeStyle;rounded=0;orthogonalLoop=1;jettySize=auto;html=1;" parent="1" source="xZHqeH_8xTrkQgz-fUOX-53" target="xZHqeH_8xTrkQgz-fUOX-21" edge="1">
          <mxGeometry relative="1" as="geometry" />
        </mxCell>
        <mxCell id="xZHqeH_8xTrkQgz-fUOX-53" value="sum :=sum - matrix[(rows div 2) + 1, (columns div 2) + 1];" style="rounded=0;whiteSpace=wrap;html=1;align=left;" parent="1" vertex="1">
          <mxGeometry x="175" y="600" width="140" height="60" as="geometry" />
        </mxCell>
        <mxCell id="xZHqeH_8xTrkQgz-fUOX-54" style="edgeStyle=orthogonalEdgeStyle;rounded=0;orthogonalLoop=1;jettySize=auto;html=1;" parent="1" source="xZHqeH_8xTrkQgz-fUOX-48" target="xZHqeH_8xTrkQgz-fUOX-53" edge="1">
          <mxGeometry relative="1" as="geometry" />
        </mxCell>
        <mxCell id="xZHqeH_8xTrkQgz-fUOX-58" value="" style="endArrow=none;dashed=1;html=1;rounded=0;" parent="1" target="xZHqeH_8xTrkQgz-fUOX-59" edge="1">
          <mxGeometry width="50" height="50" relative="1" as="geometry">
            <mxPoint x="315" y="540" as="sourcePoint" />
            <mxPoint x="390" y="545" as="targetPoint" />
          </mxGeometry>
        </mxCell>
        <mxCell id="xZHqeH_8xTrkQgz-fUOX-59" value="" style="shape=partialRectangle;whiteSpace=wrap;html=1;bottom=1;right=1;left=1;top=0;fillColor=none;routingCenterX=-0.5;rotation=90;" parent="1" vertex="1">
          <mxGeometry x="362.18" y="535" width="25.63" height="10" as="geometry" />
        </mxCell>
        <mxCell id="xZHqeH_8xTrkQgz-fUOX-60" value="&lt;span style=&quot;text-align: center;&quot;&gt;Убираем удвоение центрального элемента для нечеткой размерности&lt;br&gt;&lt;/span&gt;" style="text;html=1;align=left;verticalAlign=middle;whiteSpace=wrap;rounded=0;" parent="1" vertex="1">
          <mxGeometry x="380" y="525" width="230" height="30" as="geometry" />
        </mxCell>
        <mxCell id="sElVziIfgcbQdRzRlIm5-1" value="ЗАДАЧА №66&lt;div&gt;Подсчитайте сумму элементов на диагоналях двумерного массива.&amp;nbsp;&lt;br&gt;&lt;/div&gt;" style="text;html=1;align=center;verticalAlign=middle;whiteSpace=wrap;rounded=0;" parent="1" vertex="1">
          <mxGeometry x="320" y="-35" width="250" height="30" as="geometry" />
        </mxCell>
      </root>
    </mxGraphModel>
  </diagram>
</mxfile>
